<svg fill="#e93314" xmlns="http://www.w3.org/2000/svg" xmlns:xlink="http://www.w3.org/1999/xlink" version="1.1" viewBox="0 0 96 96" x="0px" y="0px" style="max-width:100%" height="100%"><path d="M86 96c-1.1 0-2-0.896-2-2 0-8.516-6.024-18-14.668-18h-9.332c-1.1 0-2-0.896-2-2s0.9-2 2-2h9.332c11.168 0 18.668 11.376 18.668 22 0 1.104-0.9 2-2 2z" fill="#e93314" style=""></path><path d="M10 96c-1.104 0-2-0.896-2-2 0-10.9 10.92-22 21.64-22h6.36c1.104 0 2 0.896 2 2s-0.896 2-2 2h-6.36c-8.572 0-17.64 9.252-17.64 18 0 1.104-0.896 2-2 2z" fill="#e93314" style=""></path><path d="M76 32h-56c-1.104 0-2-0.896-2-2s0.896-2 2-2h56c1.1 0 2 0.896 2 2s-0.9 2-2 2z" fill="#e93314" style=""></path><path d="M26 96c-1.104 0-2-0.896-2-2v-18c0-1.104 0.896-2 2-2s2 0.896 2 2v18c0 1.104-0.896 2-2 2z" fill="#e93314" style=""></path><path d="M34 96c-1.104 0-2-0.896-2-2v-18c0-1.104 0.896-2 2-2s2 0.896 2 2v18c0 1.104-0.896 2-2 2z" fill="#e93314" style=""></path><path d="M70 96c-1.1 0-2-0.896-2-2v-18c0-1.104 0.9-2 2-2s2 0.896 2 2v18c0 1.104-0.9 2-2 2z" fill="#e93314" style=""></path><path d="M62 96c-1.1 0-2-0.896-2-2v-18c0-1.104 0.9-2 2-2s2 0.896 2 2v18c0 1.104-0.9 2-2 2z" fill="#e93314" style=""></path><path d="M70 30c-1.1 0-2-0.896-2-2v-3.908c0-11.264-8.78-20.092-20-20.092-11.028 0-20 9.224-20 20.556v3.444c0 1.104-0.896 2-2 2s-2-0.896-2-2v-3.444c0-13.54 10.764-24.556 24-24.556s24 10.808 24 24.092v3.908c0 1.104-0.9 2-2 2z" fill="#e93314" style=""></path><path d="M48 80c-11.028 0-20-8.972-20-20v-4.344c-2.328-0.824-4-3.048-4-5.656v-8c0-2.608 1.672-4.832 4-5.656v-4.344c0-1.104 0.896-2 2-2s2 0.896 2 2v6c0 1.104-0.896 2-2 2s-2 0.9-2 2v8c0 1.1 0.896 2 2 2s2 0.896 2 2v6c0 8.824 7.176 16 16 16s16-7.176 16-16v-6c0-1.104 0.9-2 2-2s2-0.9 2-2v-8c0-1.1-0.9-2-2-2s-2-0.896-2-2v-6c0-1.104 0.9-2 2-2s2 0.896 2 2v4.344c2.328 0.824 4 3.048 4 5.656v8c0 2.608-1.672 4.832-4 5.656v4.344c0 11.028-8.972 20-20 20z" fill="#e93314" style=""></path><path d="M42 30c-1.104 0-2-0.896-2-2v-16c0-2.208-1.796-4-4-4-1.104 0-2-0.896-2-2s0.896-2 2-2c4.412 0 8 3.584 8 8v16c0 1.104-0.896 2-2 2z" fill="#e93314" style=""></path><path d="M54 30c-1.1 0-2-0.896-2-2v-16c0-4.416 3.584-8 8-8 1.1 0 2 0.896 2 2s-0.9 2-2 2c-2.204 0-4 1.792-4 4v16c0 1.104-0.9 2-2 2z" fill="#e93314" style=""></path></svg>