<svg fill="#e93314" xmlns="http://www.w3.org/2000/svg" data-name="Layer 1" viewBox="0 0 100 100" x="0px" y="0px" style="max-width:100%" height="100%"><defs style="" fill="#e93314"><style style="" fill="#e93314">.cls-1{fill-rule:evenodd;}</style></defs><title style="" fill="#e93314">a</title><path class="cls-1" d="M62.36,32.308,44.8,47.13c-.028.025-.056.049-.086.073a1.447,1.447,0,0,1-2.032-.243l-4.7-5.966a1.886,1.886,0,0,0-2.639-.311A2.648,2.648,0,0,0,34.3,42.215H34.3a1.7,1.7,0,0,0,.409,1.366l7.48,9.495a1.307,1.307,0,0,0,1.388.438,1.248,1.248,0,0,0,.441-.252L65.053,35.5a1.691,1.691,0,0,0,.674-1.326,2.674,2.674,0,0,0-.665-1.579,1.39,1.39,0,0,1-.1-.117,1.895,1.895,0,0,0-2.6-.173Zm7.98-9.932A28.765,28.765,0,1,1,50,13.951a28.675,28.675,0,0,1,20.34,8.425ZM50,11.053a31.663,31.663,0,1,1-22.389,9.274A31.564,31.564,0,0,1,50,11.053ZM31.592,31.405a1.444,1.444,0,0,1-2.457-1.517A24.5,24.5,0,0,1,50,18.221a1.449,1.449,0,0,1,0,2.9A21.572,21.572,0,0,0,31.592,31.405ZM69.013,52.977a1.446,1.446,0,0,1,2.547,1.37A24.507,24.507,0,0,1,50,67.212a1.449,1.449,0,0,1,0-2.9A21.573,21.573,0,0,0,69.013,52.977ZM55.074,2.667a14.688,14.688,0,0,0,4.967,2.964,15.4,15.4,0,0,0,5.966-.017c2.13-.275,4.254-.549,5.556.213,1.279.75,1.992,2.664,2.7,4.576a13.882,13.882,0,0,0,2.76,5.137A14.489,14.489,0,0,0,82.2,18.351c1.962.754,3.931,1.511,4.688,2.8.747,1.275.44,3.336.131,5.409a14.588,14.588,0,0,0-.084,5.963,14.981,14.981,0,0,0,3.033,5.032c1.365,1.724,2.748,3.471,2.748,5.159s-1.392,3.481-2.762,5.239a15.337,15.337,0,0,0-3.019,5.06,14.371,14.371,0,0,0,.085,5.926c.308,2.04.613,4.066-.132,5.337-.764,1.3-2.748,2.094-4.723,2.879A14.87,14.87,0,0,0,77.028,70a13.863,13.863,0,0,0-2.758,5.079c-.713,1.887-1.425,3.774-2.707,4.525-1.31.767-3.451.518-5.595.268a15.766,15.766,0,0,0-5.927.037,14.932,14.932,0,0,0-4.942,2.9c-1.69,1.3-3.4,2.619-5.1,2.619-1.737,0-3.595-1.351-5.42-2.679a16.374,16.374,0,0,0-5.028-2.843,14.934,14.934,0,0,0-5.779-.036c-2.025.248-4.034.493-5.336-.269-1.328-.778-2.164-2.721-3-4.655A15.443,15.443,0,0,0,22.565,70a14.854,14.854,0,0,0-4.919-2.827c-1.88-.788-3.762-1.576-4.535-2.9s-.566-3.4-.353-5.486a15.821,15.821,0,0,0-.1-5.777,16.213,16.213,0,0,0-2.78-4.958c-1.287-1.784-2.594-3.594-2.594-5.341s1.3-3.5,2.58-5.253a15.812,15.812,0,0,0,2.794-4.938,16.056,16.056,0,0,0,.1-5.814c-.214-2.117-.427-4.227.353-5.558.764-1.3,2.634-2.062,4.5-2.819a14.377,14.377,0,0,0,4.949-2.8,15.49,15.49,0,0,0,2.88-5.013c.829-1.955,1.664-3.921,2.992-4.7,1.293-.757,3.286-.487,5.3-.214a14.573,14.573,0,0,0,5.817.018,16.164,16.164,0,0,0,5.056-2.91C46.424,1.373,48.273,0,50,0c1.684,0,3.388,1.341,5.074,2.667ZM36.537,82.515c-.776.035-1.6.135-2.413.235-2.505.307-4.989.61-7.147-.654s-3.179-3.639-4.195-6c-.2-.476-.41-.952-.622-1.41L14.123,93.649l10.057-5.8a1.443,1.443,0,0,1,1.97.532,1.408,1.408,0,0,1,.149.369h0L29.127,100l7.41-17.485Zm41.147-8.2c-.249.57-.479,1.177-.708,1.785-.893,2.364-1.786,4.727-3.953,6s-4.767.958-7.383.653c-.734-.085-1.468-.171-2.169-.216L70.873,100,73.7,88.748h0a1.408,1.408,0,0,1,.149-.369,1.443,1.443,0,0,1,1.97-.532l10.057,5.8L77.684,74.315ZM44.033,44l16.39-13.836a1.625,1.625,0,0,1,.158-.132,4.774,4.774,0,0,1,6.566.558,1.7,1.7,0,0,1,.141.166,5.548,5.548,0,0,1,1.325,3.381A4.458,4.458,0,0,1,67,37.642a1.434,1.434,0,0,1-.153.131L45.883,55.47a4.149,4.149,0,0,1-5.972-.606L32.43,45.37a4.5,4.5,0,0,1-.974-3.663H31.45a5.5,5.5,0,0,1,2.043-3.248,1.192,1.192,0,0,1,.133-.1,4.778,4.778,0,0,1,6.579.784,1.289,1.289,0,0,1,.1.123Z" style="" fill="#e93314"></path></svg>