<svg xmlns="http://www.w3.org/2000/svg" xmlns:xlink="http://www.w3.org/1999/xlink" version="1.1" x="0px" y="0px" viewBox="0 0 100 100" enable-background="new 0 0 100 100" xml:space="preserve" style="max-width:100%" height="100%"><g style="" fill="currentColor"><path d="M94.5,66.9c-1.8-0.1-5.6,2-6.7,2.5c-3.7,1.9-8.8,5-12.2,7.4c-0.2,0.2-0.5,0.4-0.8,0.5c-1.5,1-3.1,1.7-4.9,2.1   c-9.8,2.2-24.2,2.4-24.2,2.4l-0.8,0c-0.6,0-1.2-0.4-1.3-1.1c-0.1-0.7,0.4-1.3,1.1-1.4L66,77.4c2.3-0.3,4.2-2.5,4-5.1   c-0.3-2.6-2.5-4.4-4.9-4.2l-18.9-0.2c-1.3,0-3.4-0.3-4.6-0.7c-12.2-3.7-19.1-0.2-22.8,1.4c-0.8-1.4-2.4-2.3-4.1-2.2l-8.2,0.6   c-2.7,0.2-4.8,2.5-4.6,5.3L3.2,91c0.2,2.7,2.5,4.8,5.3,4.6l8.2-0.6c1.7-0.1,3.1-1.2,3.7-2.7l35.9,1.6c4,0.4,7.7-0.1,11.3-2l1-0.6   l27.1-16.5c1.3-0.8,2.3-2.2,2.3-3.8C98.1,69.2,97.1,67.1,94.5,66.9z M11.5,91.1c-1.5,0-2.8-1.2-2.8-2.8c0-1.5,1.2-2.8,2.8-2.8   c1.5,0,2.8,1.2,2.8,2.8C14.3,89.8,13,91.1,11.5,91.1z M74.3,73.4c0-0.5,0-1,0-1.6c-0.1-0.7-0.2-1.3-0.4-1.9c0,0,0-0.1,0-0.1   c2.9-1.6,8.5-4.4,11.5-5.7c1.5-0.6,3-0.6,4.4,0.4c-1.1,0.4-2.1,0.9-3.1,1.4c-3.2,1.7-8.9,4.9-11.6,6.9C74.9,73,74.6,73.2,74.3,73.4   z M70.2,65.1c1.9-1,6.1-2.4,8-3.2c1.5-0.6,3-0.6,4.4,0.4c-2.2,1-6.5,2.6-8.5,3.7l-1.4,0.8c-0.1,0.1-0.2,0.2-0.4,0.3   C71.7,66.3,71,65.6,70.2,65.1z M31.2,47.2c-0.4,2.2,1.3,4.2,3.4,4.2l1.4,0.1c1.6,0.1,2.9,1.1,3.3,2.6l0.4,1.4   c0.6,2.1,2.9,3.2,4.9,2.3l1.3-0.6c1.4-0.6,3.1-0.3,4.2,0.9l1,1.1c1.5,1.6,4,1.6,5.5,0l0.9-1.1c1-1.2,2.7-1.6,4.1-1l1.3,0.5   c2,0.8,4.3-0.3,4.9-2.4l0.4-1.4c0.4-1.5,1.7-2.6,3.3-2.7l1.4-0.1c2.2-0.1,3.8-2.1,3.4-4.3l-0.3-1.4c-0.3-1.5,0.4-3.1,1.8-3.8   l1.3-0.7c1.9-1.1,2.5-3.6,1.2-5.3l-0.8-1.2c-0.9-1.3-0.9-3,0-4.3l0.8-1.2c1.3-1.8,0.7-4.3-1.3-5.3L77.9,23   c-1.4-0.7-2.1-2.3-1.9-3.8l0.2-1.4c0.4-2.2-1.3-4.2-3.4-4.2l-1.4-0.1c-1.6-0.1-2.9-1.1-3.3-2.6l-0.4-1.4c-0.6-2.1-2.9-3.2-4.9-2.3   l-1.3,0.6c-1.4,0.6-3.1,0.3-4.2-0.9l-1-1.1c-1.5-1.6-4-1.6-5.5,0l-0.9,1.1c-1,1.2-2.7,1.6-4.1,1l-1.3-0.5c-2-0.8-4.3,0.3-4.9,2.4   L39.1,11c-0.4,1.5-1.7,2.6-3.3,2.7l-1.4,0.1c-2.2,0.1-3.8,2.1-3.4,4.3l0.3,1.4c0.3,1.5-0.4,3.1-1.8,3.8L28.1,24   c-1.9,1.1-2.5,3.6-1.2,5.3l0.8,1.2c0.9,1.3,0.9,3,0,4.3L27,35.9c-1.3,1.8-0.7,4.3,1.3,5.3l1.3,0.7c1.4,0.7,2.1,2.3,1.9,3.8   L31.2,47.2z M41.4,27.4l7.8-0.6l3-7.3c0.6-1.4,2.5-1.4,3.1,0l3,7.3l7.8,0.6c1.5,0.1,2.1,2,0.9,2.9l-6,5.1l1.9,7.6   c0.4,1.4-1.2,2.6-2.5,1.8l-6.7-4.2L47,44.9c-1.3,0.8-2.8-0.4-2.5-1.8l1.9-7.6l-6-5.1C39.3,29.4,39.9,27.6,41.4,27.4z" style="" fill="currentColor"></path></g></svg>