<svg xmlns="http://www.w3.org/2000/svg" xmlns:xlink="http://www.w3.org/1999/xlink" version="1.1" x="0px" y="0px" viewBox="0 0 32 32" enable-background="new 0 0 32 32" xml:space="preserve" style="max-width:100%" height="100%"><g style="" fill="currentColor"><g style="" fill="currentColor"><path fill="currentColor" d="M28.9,31.3H3.1c-1.3,0-2.3-1-2.3-2.3V3.1c0-1.3,1-2.3,2.3-2.3h25.9c1.3,0,2.3,1,2.3,2.3v25.9    C31.3,30.2,30.2,31.3,28.9,31.3z M3.1,2.3c-0.4,0-0.8,0.4-0.8,0.8v25.9c0,0.4,0.4,0.8,0.8,0.8h25.9c0.4,0,0.8-0.4,0.8-0.8V3.1    c0-0.4-0.4-0.8-0.8-0.8H3.1z" style=""></path></g><g style="" fill="currentColor"><path fill="currentColor" d="M27.3,27.3h-6.5V14.6h6.5V27.3z M22.3,25.8h3.5v-9.6h-3.5V25.8z" style=""></path></g><g style="" fill="currentColor"><path fill="currentColor" d="M27.3,11.8H4.8v-7h22.5V11.8z M6.3,10.3h19.5v-4H6.3V10.3z" style=""></path></g><g style="" fill="currentColor"><path fill="currentColor" d="M18.8,20H13v-5.4h5.8V20z M14.5,18.5h2.8v-2.4h-2.8V18.5z" style=""></path></g><g style="" fill="currentColor"><path fill="currentColor" d="M10.5,20H4.8v-5.4h5.8V20z M6.3,18.5H9v-2.4H6.3V18.5z" style=""></path></g><g style="" fill="currentColor"><path fill="currentColor" d="M18.8,27.3H13v-5.4h5.8V27.3z M14.5,25.8h2.8v-2.4h-2.8V25.8z" style=""></path></g><g style="" fill="currentColor"><path fill="currentColor" d="M10.5,27.3H4.8v-5.4h5.8V27.3z M6.3,25.8H9v-2.4H6.3V25.8z" style=""></path></g></g></svg>